<svg width="238" height="260" viewBox="0 0 238 260" fill="none" xmlns="http://www.w3.org/2000/svg">
<g clip-path="url(#clip0_15192_134)">
<path d="M149.894 121.309L97.8539 138.301L52.5792 158.283L39.9136 161.627C36.6882 164.695 33.3051 167.803 29.6474 170.95C25.6358 174.411 21.8987 177.558 19.0262 179.84C15.8405 182.357 11.1199 187.078 8.72038 190.066C5.14101 194.55 2.30819 199.31 1.08968 202.968C-1.07381 209.576 -0.0108378 216.263 4.15848 222.439C9.50769 230.306 20.1675 238.33 32.5971 243.798C38.93 246.591 49.5898 250.17 57.6141 252.176C70.948 255.559 96.7523 259.218 110.952 259.768C113.823 259.886 117.678 259.886 117.835 259.768C118.15 259.571 120.352 255.363 122.909 250.131C131.642 232.312 137.935 215.595 141.358 201.316C143.403 192.663 145.015 181.138 146.077 167.489C146.353 163.673 146.471 150.889 146.235 146.562C145.881 139.481 145.251 133.739 144.269 128.113C144.111 127.288 144.071 126.54 144.151 126.5C144.307 126.382 144.779 126.225 151.191 124.375L149.894 121.308V121.309ZM138.015 128.271C138.487 128.271 139.745 140.347 140.06 147.979C140.139 149.591 140.099 150.653 140.02 150.653C139.706 150.653 133.372 146.917 128.85 144.084C124.916 141.606 117.442 136.649 116.262 135.706C115.869 135.43 115.907 135.391 119.134 134.29C124.601 132.44 137.582 128.271 138.015 128.271ZM111.503 137.003C111.857 137.003 112.761 137.514 114.925 138.852C123.027 143.926 134.042 150.063 138.762 152.108C140.217 152.738 140.374 152.501 137.031 154.783C129.872 159.661 120.942 164.459 110.007 169.298C108.079 170.164 106.467 170.832 106.428 170.832C106.35 170.832 106.585 169.849 106.899 168.668C109.535 158.873 111.03 148.961 111.109 141.016C111.149 137.083 111.149 137.083 111.503 136.965C111.424 137.003 111.463 137.003 111.503 137.003ZM106.036 139.089C106.271 139.325 106.114 148.135 105.799 150.535C105.091 156.277 103.989 161.627 102.181 167.646C101.749 169.101 101.354 170.32 101.277 170.4C101.119 170.596 95.73 165.325 93.9591 163.28C90.8903 159.739 88.4919 156.199 86.7221 152.738C85.8168 150.968 84.402 147.507 84.5189 147.389C85.1485 146.955 105.878 138.931 106.036 139.089ZM80.3099 149.197C80.3496 149.197 80.3882 149.197 80.4279 149.237C80.5062 149.315 80.7819 149.945 81.0178 150.653C82.276 154.075 85.1078 159.109 87.547 162.336C90.2221 165.876 93.7232 169.652 96.6332 172.13C97.5782 172.916 98.4427 173.664 98.5607 173.782C98.7978 174.018 98.8761 173.978 92.4639 176.417C85.0306 179.249 76.9268 182.081 67.6432 185.07C65.4261 185.785 63.21 186.506 60.9961 187.234C60.6411 187.352 60.7601 187.155 61.7824 185.542C66.3839 178.344 73.3861 164.222 77.3194 154.231C77.9877 152.5 78.657 150.77 78.775 150.376C78.9326 149.825 79.1289 149.628 79.6395 149.353C79.9163 149.276 80.1919 149.197 80.3099 149.197ZM72.4432 152.462C72.5612 152.542 70.5543 156.749 68.5882 160.604C64.7729 168.039 60.6035 175.355 55.0173 184.245C54.0734 185.779 53.1691 187.196 53.0511 187.353C52.8548 187.628 52.7755 187.549 52.1469 186.33C50.8093 183.695 49.7078 180.312 49.1178 177.204C48.5279 174.136 48.6458 168.786 49.3152 165.483C49.8257 163.045 49.7871 163.083 50.967 162.493C56.0009 159.936 72.2866 152.304 72.4432 152.462ZM140.296 155.216V156.867C140.296 165.639 139.352 177.675 137.975 186.447C137.739 187.981 137.541 189.239 137.503 189.279C137.503 189.279 136.362 188.965 135.025 188.571C129.124 186.722 122.713 184.008 116.931 180.822C113.114 178.737 107.569 175.314 107.726 175.158C107.765 175.119 109.418 174.254 111.344 173.23C119.055 169.219 126.449 164.892 132.861 160.604C135.261 158.991 138.879 156.395 139.667 155.688L140.296 155.216ZM42.7453 166.858C42.903 166.858 42.8633 167.172 42.6273 168.589C42.4696 169.612 42.2733 171.5 42.195 172.798C41.8797 178.541 42.8247 182.79 45.6564 188.611C46.4427 190.224 47.0734 191.562 47.0326 191.6C46.7569 191.836 20.7178 199.468 12.5357 201.71C10.0976 202.378 7.97383 202.968 7.81508 203.008C7.54048 203.087 7.5008 203.047 7.61879 202.378C8.52301 196.597 12.9294 189.044 19.0648 182.672C23.1558 178.424 26.4209 175.946 32.0061 172.759C36.0178 170.479 42.194 167.056 42.6659 166.899C42.667 166.858 42.7056 166.858 42.7453 166.858ZM104.108 177.833C104.148 177.793 105.092 178.306 106.232 178.974C114.65 183.852 126.372 188.376 136.362 190.696L137.268 190.893L136.008 191.6C130.777 194.511 113.588 201.67 96.0057 208.239C93.4486 209.183 90.9311 210.127 90.4591 210.323C89.9872 210.519 89.5538 210.637 89.5538 210.599C89.5538 210.559 90.2629 209.182 91.166 207.491C96.0829 198.287 101.04 187.077 103.557 179.289C103.872 178.541 104.068 177.873 104.108 177.833ZM97.8539 179.879C97.8936 179.918 97.5782 180.744 97.1856 181.688C93.7639 189.988 89.2793 199.036 83.5364 209.184C82.0808 211.781 80.8612 213.865 80.8216 213.865C80.7829 213.865 79.602 213.156 78.1861 212.291C69.8464 207.178 62.4517 200.884 57.6141 194.787L56.9062 193.921L60.4855 192.938C73.3088 189.438 84.2046 185.661 95.0221 181.02C96.556 180.39 97.8142 179.879 97.8539 179.879ZM136.716 193.449C136.716 193.449 136.756 193.488 136.716 193.449C136.756 194.355 134.749 202.457 133.097 208.317C131.721 213.234 130.54 217.089 128.378 223.894C127.434 226.884 126.608 229.361 126.568 229.361C126.528 229.361 126.293 229.321 126.057 229.244C114.375 227.119 103.911 224.17 94.0771 220.236C91.3237 219.135 87.3903 217.365 87.1544 217.167C87.0761 217.088 89.4359 215.988 92.4253 214.69C110.322 206.862 128.888 197.973 135.261 194.157C136.008 193.684 136.598 193.449 136.716 193.449ZM46.994 196.517C47.0723 196.595 42.0771 203.794 35.0749 213.588C32.6368 217.011 29.804 221.022 28.7421 222.517C27.6802 224.012 26.067 226.372 25.1627 227.788L23.5098 230.345L21.74 228.85C19.6548 227.119 16.0368 223.422 14.4236 221.376C11.0405 217.168 8.76007 212.724 7.85477 208.672C7.4225 206.783 7.42249 205.839 7.81508 205.721C8.40502 205.564 18.9072 203.086 28.7421 200.804C34.2093 199.546 40.5421 198.051 42.8236 197.501C45.1051 196.949 46.9543 196.517 46.994 196.517ZM52.0279 198.445L53.286 199.861C58.9506 206.193 64.7332 210.875 71.7342 214.965C72.9935 215.674 73.9374 216.303 73.858 216.343C73.5834 216.539 49.549 225.074 38.4172 228.929C32.1638 231.131 27.0098 232.902 26.9712 232.902C26.9315 232.902 26.5775 232.666 26.1839 232.39L25.4759 231.879L26.6162 230.227C30.3135 224.877 34.9559 219.017 45.0643 206.823L52.0279 198.445ZM83.4184 220.904C83.457 220.866 85.1882 221.494 87.312 222.282C92.4264 224.209 96.4766 225.428 101.906 226.805C108.593 228.496 118.269 230.148 123.973 230.62C124.839 230.699 125.311 230.778 125.153 230.896C124.878 231.054 119.096 232.981 114.848 234.319C108.081 236.443 87.4311 242.539 70.5962 247.378C67.4888 248.282 64.8136 249.03 64.6559 249.07C64.2634 249.149 62.9644 248.794 62.9644 248.637C62.9644 248.559 63.9083 247.339 65.0496 246.002C70.7131 239.236 76.339 231.684 81.02 224.525C82.3157 222.556 83.4184 220.944 83.4184 220.904ZM76.4946 221.102C76.5342 221.14 73.7411 225.625 68.8639 233.334C66.7787 236.599 64.4575 240.297 63.6316 241.594C62.8453 242.853 61.6654 244.82 60.9961 245.921L59.8548 247.927L59.2649 247.77C57.8479 247.376 47.8971 243.875 45.2617 242.813C41.9966 241.515 38.6135 239.941 36.0961 238.604C32.95 236.912 29.0167 234.395 29.331 234.317C29.4093 234.277 34.7982 232.821 41.2887 231.052C58.5173 226.371 68.0755 223.657 74.33 221.69C75.4723 221.338 76.4549 221.062 76.4946 221.102ZM125.467 232.586H125.506C125.664 232.98 119.291 250.681 116.97 256.266C116.46 257.524 116.263 257.839 115.988 257.8C115.32 257.761 106.076 256.463 100.45 255.636C90.6554 254.142 74.2131 251.269 70.0835 250.326L69.1395 250.129L74.9993 248.791C87.5866 245.959 93.6449 244.425 99.7803 242.537C107.53 240.177 115.2 237.227 122.949 233.609C124.169 233.058 125.191 232.626 125.467 232.586Z" fill="white"/>
<path d="M96.2378 0.00126763C95.3722 -0.115649 81.4076 4.9182 72.4008 8.57586C60.2458 13.5325 50.8067 18.2531 44.9844 22.3431C42.821 23.878 40.1072 26.5917 39.6749 27.6536C39.5173 28.0473 39.439 28.5192 39.439 28.9912L44.7099 33.9864L57.2574 37.9981L87.1129 43.3473L121.255 49.2081L121.609 46.2584C121.491 46.2584 121.412 46.2187 121.294 46.2187L116.809 45.5108L115.904 43.8986C111.263 35.7166 106.149 25.5684 103.159 18.724C100.839 13.4134 98.6362 7.27798 97.4166 2.8727C96.7494 0.198632 96.6711 0.0420275 96.2378 0.00126763ZM95.6081 2.00816H95.6489C95.6875 2.04677 95.8452 3.14943 96.0029 4.44624C96.6711 9.95419 97.8918 15.2637 99.8182 21.0066C101.274 25.3335 101.274 25.0976 99.5822 24.5859C95.5706 23.4854 77.5945 20.3769 64.5749 18.5685C62.4897 18.2928 60.7199 18.0182 60.7199 17.9785C60.5622 17.8208 70.1204 12.8256 74.3294 10.8595C79.7172 8.38064 94.5076 2.20445 95.6081 2.00816ZM57.6897 19.6304L59.2246 20.1409C67.5632 22.9738 88.5277 26.9854 100.093 27.9293C101.391 28.0473 102.492 28.1653 102.531 28.1653C102.571 28.205 101.469 28.7949 100.053 29.4632C94.4679 32.2563 88.3314 35.678 84.0838 38.3134C82.8257 39.0997 81.6844 39.7293 81.5278 39.7293C81.3701 39.7293 80.5442 39.5716 79.6796 39.4536L78.1061 39.2176L74.1728 35.3626C67.25 28.6372 61.8215 23.4446 59.7363 21.4774L57.6897 19.6304ZM56.1172 20.8489L61.6638 27.7716C64.6918 31.587 67.7606 35.324 68.4299 36.1489C69.0982 36.9759 69.6495 37.6441 69.6098 37.6838C69.4521 37.8018 61.5855 36.2668 57.4162 35.324C53.1289 34.3404 51.3591 33.8684 48.7236 33.0425L46.5601 32.3346V31.7833C46.5998 29.1478 49.9432 25.2145 55.6067 21.2028L56.1172 20.8489ZM103.24 30.2902C103.398 30.2902 103.594 30.6441 104.066 31.706C105.403 34.6558 109.574 42.6018 110.595 44.1357C110.91 44.6473 111.461 44.687 105.915 43.7817C92.5812 41.6182 88.2928 40.9103 88.2928 40.832C88.2928 40.7923 88.6865 40.5177 89.1981 40.242C93.3288 37.9605 97.4981 35.0505 101.195 31.942C102.101 31.1944 102.927 30.4865 103.083 30.3685C103.122 30.2902 103.2 30.2505 103.24 30.2902Z" fill="white"/>
<path d="M39.9516 27.103C39.9516 27.103 39.0871 28.4803 39.913 30.5258C40.4247 31.784 41.9188 33.3178 43.6104 34.8914C43.6104 34.8914 61.1146 51.9623 63.2384 54.4014C72.9145 65.5718 77.1235 76.5855 77.5172 91.7697C77.7531 101.525 75.9039 110.1 71.3024 120.052C63.1204 137.91 45.8522 157.616 19.2231 179.487L23.1178 178.189C25.6353 176.3 29.057 174.296 37.0813 169.889C55.6077 159.74 76.4552 150.418 102.023 140.82C138.84 126.973 199.377 110.767 233.833 105.497L237.414 104.946L236.862 104.08C233.716 99.203 231.552 96.1739 228.956 92.9485C221.405 83.5866 212.24 75.9956 201.029 69.7014C185.61 61.0871 165.667 54.3617 140.414 49.3654C135.655 48.4205 125.191 46.612 116.695 45.3141C98.679 42.5221 87.0367 40.5946 74.2135 38.3914C69.6119 37.6041 62.7278 36.4242 58.1648 35.4416C55.8051 34.93 51.2818 33.8681 47.7421 32.6485C44.9083 31.548 40.8173 30.4464 39.9516 27.103ZM50.1008 36.9369C50.1394 36.8983 50.7691 37.1332 51.595 37.4088C53.0892 37.9194 55.0167 38.5094 57.2992 39.1401C59.0251 39.6152 60.7563 40.0733 62.4907 40.5163C64.8505 41.1062 66.8177 41.6565 66.8563 41.6565C67.132 41.9321 71.105 54.6363 72.4426 59.5136C72.9531 61.3628 73.3468 62.9363 73.3082 62.9363C73.2674 62.976 72.8351 62.3067 72.3246 61.4025C67.7219 53.2998 60.4452 45.0781 52.0273 38.4697C50.9268 37.6845 50.1008 36.9766 50.1008 36.9369ZM69.4532 42.2872C69.6494 42.2872 70.5151 42.4052 71.577 42.6411C78.2637 44.1353 90.261 46.4168 97.9314 47.7157C99.2293 47.912 100.253 48.1491 100.253 48.2274C100.253 48.3068 99.7795 48.5813 99.1896 48.8967C97.8917 49.5649 92.6605 52.6723 90.9304 53.8522C86.5637 56.7634 82.6304 59.9094 79.7986 62.7422C78.6584 63.8835 77.6738 64.8274 77.6738 64.8274C77.6738 64.8274 77.4389 64.1591 77.2415 63.3321C75.8267 57.8649 72.8759 49.7612 70.2008 44.0581C69.7685 43.1538 69.4135 42.3279 69.4135 42.2496C69.4135 42.3258 69.4135 42.2872 69.4532 42.2872ZM103.517 48.7766C103.753 48.8549 104.146 50.1924 104.932 53.1422C106.388 58.8464 107.057 65.2178 106.821 71.158C106.742 72.8099 106.664 74.3437 106.584 74.5411L106.466 74.9337L104.421 74.2654C100.212 72.9279 93.3684 70.9221 87.5076 69.2702C84.1631 68.366 81.4505 67.539 81.4505 67.4607C81.4505 67.2247 86.3277 62.3475 88.4129 60.4982C92.3848 56.9972 103.163 48.6586 103.517 48.7766ZM106.231 49.1702C106.349 49.0533 122.516 51.8454 129.872 53.2612C135.34 54.3231 143.285 55.975 143.757 56.1723C143.993 56.2506 143.167 56.7226 140.532 57.9025C130.148 62.5834 122.438 66.7924 114.768 71.9057C112.763 73.2432 111.071 74.3437 111.031 74.3437C110.992 74.3437 110.953 73.2035 110.953 71.8263C110.953 64.3533 109.458 56.8009 106.704 50.4284C106.428 49.7999 106.192 49.2099 106.231 49.1702ZM148.043 57.4305C148.161 57.5485 147.65 60.7353 147.178 62.6221C145.762 68.4829 141.947 77.1766 137.267 85.3575C136.44 86.813 135.693 87.9929 135.614 88.0326C135.535 88.0723 134.474 87.4813 133.254 86.7734C128.691 84.0982 123.5 81.5818 117.835 79.221C116.263 78.5527 114.885 78.0014 114.846 77.9231C114.57 77.6871 127.236 69.3088 133.923 65.2961C139.233 62.0718 147.886 57.2729 148.043 57.4305ZM151.033 57.9025C151.387 57.9025 158.547 59.8697 162.283 60.9713C171.526 63.7247 182.146 67.6184 189.069 70.7655L191.941 72.0644L189.935 72.5364C173.022 76.43 158.545 80.9147 144.582 86.5792C143.442 87.0512 142.419 87.4448 142.34 87.4448C142.261 87.4448 142.655 86.5406 143.166 85.439C147.375 76.5104 150.089 67.1882 150.757 59.2422C150.798 58.4924 150.915 57.9025 151.033 57.9025ZM79.7589 74.2654C79.8769 74.1475 85.3441 75.4453 88.2949 76.2713C92.7785 77.5305 102.298 80.7162 102.298 80.9522C102.298 80.9919 101.236 81.8961 99.9779 82.9977C94.8251 87.285 89.8684 91.8083 83.9282 97.5511C82.1584 99.2427 80.6642 100.62 80.5859 100.62C80.5066 100.62 80.4679 100.383 80.5066 100.069C81.4108 93.4601 81.2156 84.9638 79.9563 76.3496C79.8372 75.249 79.7193 74.3051 79.7589 74.2654ZM194.655 74.3845C194.734 74.4628 192.138 78.5538 190.486 80.8739C188.126 84.257 184.664 88.7416 176.836 98.5755C172.706 103.767 168.064 109.629 166.531 111.595C164.958 113.561 163.66 115.213 163.62 115.213C163.58 115.213 163.07 114.505 162.52 113.641C158.114 107.032 152.842 101.25 146.589 96.058C145.409 95.0744 144.111 94.0125 143.679 93.6972C143.247 93.3829 142.892 93.0676 142.892 93.0289C142.892 92.9109 149.578 90.0395 154.653 87.994C163.543 84.375 175.656 80.048 184.743 77.2549C189.503 75.7607 194.576 74.3051 194.655 74.3845ZM197.685 75.1707C197.841 75.1321 198.786 75.6041 199.926 76.2713C209.484 81.7384 218.846 88.7803 226.241 96.0183C228.325 98.0639 233.478 103.413 233.4 103.453C233.4 103.453 231.59 103.61 229.466 103.767C212.906 105.026 191.706 108.526 171.33 113.443C169.954 113.757 168.734 114.033 168.655 114.033C168.577 114.033 170.111 112.499 172.038 110.651C183.996 99.1258 189.463 91.849 195.914 78.8681C196.819 76.9406 197.605 75.2887 197.685 75.1707C197.645 75.1707 197.645 75.1707 197.685 75.1707ZM110.085 84.139C110.637 84.2559 115.75 86.6565 119.605 88.584C123.145 90.3538 128.455 93.1866 128.731 93.4215C128.77 93.4612 126.882 94.4437 124.561 95.585C117.166 99.2824 110.833 102.782 104.224 106.795C102.337 107.936 100.763 108.88 100.724 108.88C100.567 108.88 100.607 108.723 101.668 106.795C105.209 100.344 108.041 92.6353 109.654 85.1215C109.811 84.5316 109.968 84.139 110.085 84.139ZM104.972 85.0829C105.09 85.2009 103.753 90.0384 102.928 92.675C101.314 97.6702 98.6007 103.925 95.9652 108.645C95.3356 109.746 94.3917 111.359 93.8801 112.263L92.8965 113.837L90.6933 111.713C88.1372 109.235 86.052 107.7 83.3769 106.324C82.3139 105.774 81.488 105.302 81.488 105.224C81.488 104.909 88.2145 98.8126 93.3673 94.4062C97.0658 91.2194 104.854 84.9649 104.972 85.0829ZM136.243 97.9459L138.171 99.2041C142.575 102.075 147.768 105.891 151.741 109.234C153.983 111.082 158.308 114.977 159.175 115.921L159.646 116.433L156.46 117.337C138.444 122.332 124.521 126.777 108.275 132.756C106.465 133.424 104.931 133.975 104.813 133.975C104.578 133.975 104.381 134.172 108.432 130.435C118.816 120.878 128.021 110.335 134.865 100.069L136.243 97.9459ZM128.023 99.9903C128.101 100.069 122.712 107.66 119.487 111.948C115.632 117.061 108.787 125.637 104.068 131.221C102.102 133.542 100.41 135.47 100.332 135.509C100.214 135.549 100.174 134.959 100.174 134.054C100.174 129.293 98.9547 124.22 96.8309 119.893C95.9256 118.083 95.769 117.651 95.9663 117.455C96.7139 116.786 108.16 110.256 115.397 106.363C120.273 103.767 127.904 99.912 128.023 99.9903ZM78.3034 112.185C78.4214 112.185 79.3267 112.657 80.3489 113.207C82.8663 114.583 85.1081 116.117 87.1139 117.77C87.1922 117.848 86.17 118.675 84.8325 119.658C81.0954 122.333 75.432 126.62 72.1283 129.256C68.6658 132.009 68.5489 132.088 68.9415 131.498C71.5383 127.525 72.8351 125.283 74.2124 122.411C75.432 119.855 76.6505 116.826 77.5161 114.191C77.8314 113.05 78.2251 112.185 78.3034 112.185ZM91.56 122.569C91.7563 122.531 91.9922 122.883 93.0541 124.458C95.2959 127.8 97.0272 132.286 97.4605 135.904L97.5388 136.691L92.151 138.777C82.5135 142.513 73.6246 146.211 67.605 148.963C65.9146 149.751 62.9638 151.166 61.0373 152.11C59.1098 153.093 57.5363 153.841 57.5363 153.802C57.5363 153.763 58.7559 152.858 60.25 151.756C72.0114 143.222 82.1992 133.86 89.8298 124.498C90.6558 123.514 91.4034 122.609 91.4817 122.57L91.56 122.569ZM85.4632 124.063C85.6208 124.221 81.1362 129.295 78.0685 132.402C70.4764 140.152 62.9638 146.209 53.6416 152.109C52.4617 152.857 51.3998 153.525 51.2818 153.603C51.0061 153.761 51.3601 153.368 55.4511 148.923C58.0479 146.129 60.014 143.77 62.2558 140.86C63.75 138.932 64.0257 138.657 66.1902 137.123C71.9706 132.953 85.3055 123.906 85.4632 124.063Z" fill="white"/>
</g>
<defs>
<clipPath id="clip0_15192_134">
<rect width="237.417" height="259.859" fill="white"/>
</clipPath>
</defs>
</svg>
