<svg version="1.0" xmlns="http://www.w3.org/2000/svg" width="236.000000pt" height="214.000000pt" viewBox="0 0 236.000000 214.000000" preserveAspectRatio="xMidYMid meet">

<g transform="translate(0.000000,214.000000) scale(0.100000,-0.100000)"
fill="#fff" stroke="none">
<path d="M517 1982 c-37 -37 -67 -73 -67 -79 0 -6 72 -81 161 -166 l160 -155 67 -6 c37 -3 117 -6 179 -8 l111 -1 54 58 c29 32 57 64 61 72 10 16 -2 31 -181 221 l-125 132 -176 0 -177 0 -67 -68z m542 -132 l133 -140 -34 -39 c-18 -22 -38 -40 -43 -40 -6 -1 -70 59 -144 133 l-134 134 39 46 c21 25 41 46 44 46 4 0 66 -63 139 -140z"/>
<path d="M242 1358 c-97 -82 -177 -156 -177 -164 0 -8 25 -45 55 -84 l55 -69 172 0 173 -1 2 -342 3 -342 40 -12 40 -11 5 -134 5 -134 101 -3 102 -3 77 93 c58 69 83 92 99 90 12 -1 214 -46 449 -99 l428 -96 212 211 c145 145 208 215 201 222 -5 5 -95 27 -200 48 l-189 38 -3 289 c-1 159 -6 293 -10 296 -4 4 -232 51 -507 104 -553 107 -497 89 -583 189 l-34 38 -126 9 c-70 5 -146 10 -170 13 -43 4 -44 3 -220 -146z m525 44 c17 -20 30 -38 30 -39 -1 0 -58 2 -126 6 l-124 7 -29 34 c-15 19 -28 37 -28 40 0 3 55 2 123 -3 l122 -8 32 -37z m-285 -63 c-9 -8 -77 -67 -151 -129 l-134 -114 -39 44 c-21 24 -37 47 -36 51 2 4 70 64 151 133 l149 126 39 -47 c37 -45 38 -48 21 -64z m1356 -223 c2 -2 2 -21 0 -43 l-3 -39 -528 106 -528 105 40 31 40 31 488 -94 c268 -52 489 -96 491 -97z m-545 -23 l547 -107 0 -443 0 -443 -22 5 c-60 14 -395 90 -578 131 -113 26 -209 50 -214 55 -5 5 -5 13 1 21 6 8 12 105 14 243 l4 230 -95 3 -95 3 -123 -124 -122 -124 0 -82 c0 -72 -2 -82 -16 -77 -9 3 -18 6 -20 6 -2 0 -4 154 -4 343 l0 342 77 63 c43 34 82 62 88 62 5 1 256 -48 558 -107z"/>
<path d="M1298 1004 c-21 -20 -6 -34 36 -34 35 0 48 -5 60 -22 20 -29 20 -58 0 -87 -13 -18 -24 -22 -50 -19 -28 3 -34 1 -34 -14 0 -11 7 -18 20 -18 12 0 32 -11 46 -25 21 -21 25 -33 22 -72 -2 -39 -8 -50 -27 -60 -20 -9 -32 -9 -59 3 -43 18 -42 18 -42 -5 0 -21 44 -41 89 -41 84 0 118 125 50 186 -20 18 -20 18 6 41 47 44 45 108 -6 145 -27 21 -99 35 -111 22z"/>
<path d="M1550 931 c0 -16 5 -18 39 -14 52 7 81 -20 81 -78 0 -35 -7 -48 -53 -97 -75 -80 -97 -111 -97 -137 0 -20 9 -24 83 -39 101 -20 97 -20 97 3 0 15 -12 21 -65 31 -36 7 -65 14 -65 17 0 16 36 66 79 108 58 56 74 98 60 150 -14 49 -51 75 -110 75 -42 0 -49 -3 -49 -19z"/>
</g>
</svg>
